<?xml version="1.0" encoding="UTF-8"?>
<!DOCTYPE svg  PUBLIC '-//W3C//DTD SVG 1.1//EN'  'http://www.w3.org/Graphics/SVG/1.1/DTD/svg11.dtd'>
<svg clip-rule="evenodd" stroke-linecap="round" stroke-linejoin="round" version="1.1" width="512" height="512" viewBox="0 0 512 512" xml:space="preserve" xmlns="http://www.w3.org/2000/svg" xmlns:vectornator="http://vectornator.io">
<metadata>
<vectornator:setting key="DimensionsVisible" value="1"/>
<vectornator:setting key="PencilOnly" value="0"/>
<vectornator:setting key="SnapToPoints" value="0"/>
<vectornator:setting key="OutlineMode" value="0"/>
<vectornator:setting key="GuidesVisible" value="1"/>
<vectornator:setting key="RulersVisible" value="1"/>
<vectornator:setting key="CMYKEnabledKey" value="0"/>
<vectornator:setting key="SnapToEdges" value="0"/>
<vectornator:setting key="DisplayWhiteBackground" value="0"/>
<vectornator:setting key="doHistoryDisabled" value="0"/>
<vectornator:setting key="TimeLapseWatermarkDisabled" value="0"/>
<vectornator:setting key="SnapToGuides" value="1"/>
<vectornator:setting key="DynamicGuides" value="0"/>
<vectornator:setting key="IsolateActiveLayer" value="0"/>
<vectornator:setting key="SnapToGrid" value="0"/>
<vectornator:setting key="Units" value="Pixels"/>
</metadata>
<g vectornator:layerName="背景">
<path d="m0 0h512v512h-512v-512z" fill="#fff"/>
</g>
<g vectornator:layerName="色影">
<path d="m362.94 385.98c8.784 18.766-37.93 40.96-44.765 42.501-7.813 1.761-11.609 6.76 1.007 7.422 13.24 0.695 52.179-18.352 60.059-38.287 1.671-4.227 1.914-10.578-1.158-12.783-2.866-2.057-18.28-5.556-15.143 1.147z" fill="#785800" opacity=".5"/>
</g>
<g fill="#888" vectornator:layerName="影">
<path d="m213.72 239.32c2.63-6.022 17.639-43.447 28.738-41.561s-4.945-14.152-16.993-8.207c-12.048 5.946-29.146 42.848-29.402 48.938s15.027 6.853 17.657 0.83z" opacity=".2"/>
<path d="m264.12 244.71c-2.591 8.644 17.7 12.797 16.248 4.934-1.453-7.862 24.431-21.633 35.724-26.656 11.292-5.023-6.512-11.093-13.637-8.303-7.125 2.789-35.744 21.382-38.335 30.025z" opacity=".2"/>
<path d="m354.97 242.13c-3.466 1.188-9.235 11.256-8.431 16.238 0.805 4.982 10.098 5.918 13.402 4.542s9.569-10.336 9.269-13.355c-0.299-3.019-10.774-8.613-14.24-7.425z" opacity=".2"/>
<path d="m379.71 221.81c-5.422 3.927-19.605 25.937-22.741 34.931s15.007 14.831 18.013 3.631c3.005-11.2 11.958-21.461 17.489-27.901 5.532-6.44-7.338-14.588-12.761-10.661z" opacity=".2"/>
<path d="m352.15 192.07c-3.463 3.705 26.954 30.781 12.313 53.243-6.583 10.099 13.109 14.366 15.141 9.484 11.979-28.784-20.299-70.38-27.454-62.727z" opacity=".2"/>
<path d="m383.19 241.38c1.633-5.485 13.524 5.638 17.868 17.25 4.344 11.613 7.123 44.169 6.554 50.039-0.568 5.871-13.686 8.148-13.931 1.315-1.861-51.855-12.123-63.12-10.491-68.604z" opacity=".2"/>
</g>
<g fill="none" stroke="#000" stroke-linecap="round" stroke-linejoin="round" stroke-width="3" vectornator:layerName="線">
<path d="m278.39 145.6c-17.394 16.6 17.996-87.31 34.973-68.271 9.314 10.445-17.711 33.038-22.734 52.354"/>
<path d="m108.93 365.88c7.858-6.958 27.043 11.025 43.038 3.94"/>
<path d="m182.67 264.61c-61.831 22.639-71.653 69.356-67.611 67.611"/>
<path d="m206.19 262.07c16.886-25.587-106.2 48.922-67.382 85.722"/>
<path d="m219.67 241.35c-4.792-1.597-23.985 17.565-2.156 19.206 15.76 1.184 42.391-25.325 58.709-33.484"/>
<path d="m216.92 241.12c-7.149-4.311-20.165 14.229-18.803 22.311"/>
<path d="m178.49 268.78c4.761-2.06 14.233-0.852 20.608-0.852"/>
<path d="m128.12 231.2c-0.703-8.323-7.854-15.826-14.067-15.708-18.834 0.355-29.354 128.55-18.404 136.22 3.5167 2.462 3.8684-5.275 11.605 3.048"/>
<path d="m345.89 166.97c-125.97-45.611-215.76 22.783-234.64 59.99-5.487 10.813-66.49 99.573-43.664 91.736"/>
<path d="m321.51 142.42c-124.15-60.944-226.39 86.129-231.28 133.6-4.495 43.582-5.6676 66.056 10.445 67.048"/>
<path d="m349.7 257.69c-52.337 16.325-49.192-17.886-71.255 4.23 0 0 4.372 2.657 6.861-2.56 1.641-3.438-2.284-5.077-0.347-13.046 0 0 0 5.43 11.756 3.759"/>
<path d="m287.94 161.16c31.489-47.403-179.49 23.689-151.3 54.792"/>
<path d="m325.55 186.59c-5.074-15.206 16.162-18.625 32.538-13.136 18.392 6.164 38.833 24.788 52.96 42.426 14.688 18.339 13.414 37.102 18.678 50.431 8.972 22.718 17.66 25.98 20.971 38.46"/>
<path d="m399.99 220.42c18.698-5.526 39.887 98.24 9.038 151.06"/>
<path d="m425.42 302.94c6.951 37.071 3.743 52.042-14.522 78.194"/>
<path d="m286.64 157.32c18.752-3.305 31.436 8.064 37.215 9.027s17.174 1.14 21.973 4.197c7.121 4.536 8.413 6.941 14.186 10.833 5.511 3.715 10.736 3.719 16.676 9.498s6.133 13.347 10.146 19.447c4.013 6.101 12.277 15.779 13.501 20.076 14.38 50.457 37.739 86.705 6.288 143.09"/>
<path d="m106.03 361.85c-84.385-118.68 113.39-255.29 221.78-197.62"/>
<path d="m404.7 199.7c-20.139-17.935-61.037-13.242-83.178-28.315-33.144-22.563-49.678-17.265-66.657-15.049-18.933 2.471-37.928-6.484-81.603 15.188"/>
<path d="m375.27 273.55c28.183-9.824 11.615 48.83 40.862 57.647"/>
<path d="m362.54 261.79c7.816 3.738 28.366 29.242 26.151 54.61"/>
<path d="m236.94 370.17s-16.532 21.964-5.884 26.771c10.177 4.595 5.884-26.771 5.884-26.771z"/>
<path d="m229.78 317.29c-4.904-0.402-3.335 18.246-3.326 34.907"/>
<path d="m321.75 314.04s-1.2 37.717 1.615 37.576"/>
<path d="m185.24 320.33c0.989-11.432 43.951-24.035 54.286-22.207"/>
<path d="m313.58 297.78c-15.63-3.277 17.994-11.28 33.356-1.397"/>
</g>
</svg>
