<svg xmlns="http://www.w3.org/2000/svg" width="512" height="512" viewBox="0 0 512 512">
	<path d="M260,119c-77,8-111,34-144,61m27-22c-43,28-78,112-64,160m-3-56c-6,1-8,85,23,98m284-187c-14-28-85-62-155-48m213,137c24,12-39-114-109-123m96,205c24,16,22-68,9-101m-189-121c33-109,89-74,30-30m-107,60c-7-23-130,67-105,162m254-182c-40-10-97-11-134,7m269,181c7-62-41-99-51-142m-305,170c0,15,19,15,30,15m309-74c7,41,7,53-10,88m-27-98c18,2,8,41,32,49m-81-83c-52,16-49-18-71,4c0,0,5,3,7-3c2-3-2-5,0-13c0,0,0,6,11,4m-84-10c-27,39,40,8,60-18m-53,30c-41-9-125,68-95,90m58-74c-23-22-75,40-77,65m262-69c16,2,35,35,39,50m-114-186c-80-12-149,19-177,83m55,123c-7-8,29-31,59-30m129,7c-20-13-58-8-47-3m-87,19c-7-7-3,37-3,37m96-38c-2-10-1,33,1,35m-96,19c-20,33,3,30,2,21" style="fill:none;stroke:#fff;stroke-linecap:round;stroke-linejoin:round;stroke-width:8;"/>
	<path d="M376,382c-9-6,18-19,25-5c26,50-136,78-71,54c54-21,54-44,46-49z" fill="#6ca" opacity=".5"/>
	<path d="M366,180c14,15-41,24-74,21m-171,2c3-21,47-61,51-43m216,23c4,8-26,16-36,18m62,21c15,16,32,52,20,68" fill="#888" opacity=".5"/>
</svg>
