<svg xmlns="http://www.w3.org/2000/svg" width="512" height="512" viewBox="0 0 64 64">
	<clipPath id="clip"><path d="M0,30v34h64v-40h-36z"/></clipPath>
	<path d="M0,0v64h64v-64z" fill="#fff"/>
	<g clip-path="url(#clip)">
		<path d="M47,48c-1-1,2-2,3-1c5,5-17,11-9,7c6-3,7-5,6-6z" fill="#6ca" opacity=".5"/>
		<path d="M52,28c2,2,4,7,2,8m-5-13c1,2-4,2-5,2m-29,1c0-2,4-7,6-5m25,1c2,2-6,3-9,2" fill="#888" opacity=".5"/>
		<path d="M52,46c9-16-2-18-2-25m-17-6c-29,1-27,34-17,30m36-2c6,3,9-20-10-25m-14,28c-3,5,2,5,1,3m11-10c0,0-1,1,0,5m-12-5c0,0-1,2,0,5m17-6c-2-2-8-2-7-1m-16,3c-1-1,3-4,7-4m8-22c-10-2-25,6-23,14m32,4c7,4,2,4,7,9m-25-12c-8,0-15,8-12,12m31-11c-4,1-10,0-11-1m-15-9c-2-3-16,6-13,19m23-24c4-15,11-9,4-4m13,11c0-4-13-10-22-4m1,10c-4,5,4,3,8-2" style="fill:none;stroke:#000;stroke-linecap:round;stroke-linejoin:round;stroke-width:1;"/>
	</g>
	<path d="M10,22c0,0,5-12,18-12" fill="#fea" opacity="0.5"/>
	<path d="M54,24c0-7-23,0-23,0" fill="#888" opacity="0.5"/>
	<path d="M9,35c-17-3,5-10,23-11s39,0,24,6m-48-2c1-26,44-25,46-4m-45,0c0,0,14-7,44-4" style="fill:none;stroke:#000;stroke-linecap:round;stroke-linejoin:round;stroke-width:1;"/>
</svg>