<svg xmlns="http://www.w3.org/2000/svg" xmlns:xlink="http://www.w3.org/1999/xlink" version="1.1" width="300pt" height="300pt" viewBox="0 0 300 300">
<defs>
<clipPath id="clip_0">
<path transform="matrix(1,0,0,-1,0,300)" d="M0 300H300V0H0Z"/>
</clipPath>
</defs>
<g id="layer_1" data-name="logo">
</g>
<g id="layer_1" data-name="logo-background-color">
</g>
<g id="layer_1" data-name="favicon">
<g clip-path="url(#clip_0)">
<path transform="matrix(1,0,0,-1,222.769,227.3584)" d="M0 0C-16.181-17.258-38.166-22.936-64.779-25.627-118.666-31.076-165.348-7.012-171.001 53.117-173.405 78.679-167.716 102.979-156.246 122.892L-162.924 149.153C-164.002 153.719-159.801 158.061-155.352 156.981L-132.283 151.381C-118.565 162.645-101.971 170.006-83.667 171.856-68.01 173.439-52.83 170.814-39.029 164.826L-17.345 177.943C-13.264 180.412-8.097 177.621-7.708 172.739L-6.457 141.804C10.219 124.197 21.574 100.154 24.141 72.851 25.591 57.429 23.991 45.632 19.903 34.377 17.989 29.109 17.413 24.654 20.873 20.245 24.215 15.984 29.516 7.714 35.427 9.101 44.311 11.184 53.825 10.628 59.705 6.956 70.886 27.951 77.231 51.912 77.231 77.358 77.231 160.201 10.074 227.358-72.769 227.358-155.612 227.358-222.769 160.201-222.769 77.358-222.769-5.484-155.612-72.642-72.769-72.642-30.289-72.642 8.062-54.979 35.354-26.602 30.567-25.883 25.67-24.023 21.02-20.924 12.089-14.97 4.164-9.346 0 0" fill="#55c500"/>
<path transform="matrix(1,0,0,-1,208.9209,117.3828)" d="M0 0 14.009 1.717 13.811 4.241-.562 2.479C-1.179 4.296-1.875 6.071-2.644 7.805L13.188 12.856 12.691 16.025-4.147 10.192C-15.442 33.873-39.864 48.25-67.513 45.454-95.118 42.663-116.976 22.786-123.683-2.651L-140.153-.156-140.329-3.393-124.112-5.15C-124.551-7.021-124.915-8.13-125.187-10.054L-139.335-11.183-139.207-13.714-125.417-12.613C-125.659-14.754-125.805-16.131-125.832-18.32L-138.43-23.471-137.812-26.594-125.815-20.979C-125.787-22.652-125.715-23.545-125.556-25.238-122.221-60.701-92.6-67.714-57.209-64.135-21.819-60.556 5.938-47.741 2.604-12.278 2.444-10.576 2.2-9.692 1.913-8.036L14.909-10.859 15.211-7.997 1.581-5.408C1.152-3.3 .625-2.021 0 0" fill="#55c500"/>
</g>
</g>
</svg>
